<?xml version="1.0" encoding="UTF-8" standalone="no"?><!DOCTYPE svg PUBLIC "-//W3C//DTD SVG 1.1//EN" "http://www.w3.org/Graphics/SVG/1.1/DTD/svg11.dtd"><svg width="100%" height="100%" viewBox="0 0 207 89" version="1.1" xmlns="http://www.w3.org/2000/svg" xmlns:xlink="http://www.w3.org/1999/xlink" xml:space="preserve" xmlns:serif="http://www.serif.com/" style="fill-rule:evenodd;clip-rule:evenodd;stroke-linejoin:round;stroke-miterlimit:2;"><rect id="Itchy" x="0" y="0" width="206.01" height="88.308" style="fill:none;"/><g><path d="M138.654,38.631l-0,-19.918l10.102,0l0,15.012c1.475,-0.784 3.233,-1.298 5.266,-1.298c3.661,0 6.462,1.086 8.528,2.74c0.783,0.627 1.464,1.34 2.044,2.121c-0.038,-0.089 -0.072,-0.168 -0.102,-0.235l-1.679,-3.848l10.684,-0l6.537,15.64l6.215,-15.64l10.436,-0l-1.457,3.745c-1.083,2.786 -9.853,24.864 -10.383,26.347c-3.228,8.629 -9.091,11.304 -14.988,11.304l-2.749,-0l-0,-9.74l2.749,0c1.588,0 2.745,-0.178 3.465,-0.882c0.734,-0.783 1.261,-1.616 1.593,-2.228c-1.358,-3.232 -5.33,-12.678 -7.994,-18.984c0.165,0.903 0.247,1.826 0.247,2.754l-0,18.37l-10.051,0l-0,-15.577c-0,-1.534 -0.043,-2.97 -0.36,-4.204c-0.201,-0.783 -0.506,-1.473 -1.134,-1.943c-0.476,-0.326 -1.209,-0.421 -1.98,-0.376c-2.351,0.138 -4.887,2.023 -4.887,6.42l0,15.68l-10.102,0l-0,-5.404l-0.311,0.376c-2.937,3.557 -7.377,5.856 -12.312,5.856c-8.86,0 -15.987,-7.209 -15.987,-16.197c-0,-2.138 0.409,-4.178 1.152,-6.045l-5.384,-0l-0,21.414l-10.153,0l0,-21.414l-4.905,-0l0,21.414l-10.148,0l0,-30.744l10.148,-0l0,0.004l4.905,0l0,-14.437l10.153,0l-0,14.437l6.619,0l0,6.861c2.813,-4.586 7.839,-7.635 13.6,-7.635c4.815,-0 9.134,2.177 12.074,5.612l0.549,0.642Zm-0,2.44l-6.222,5.829l-1.849,-2.387c-1.089,-1.406 -2.725,-2.35 -4.552,-2.35c-3.327,-0 -5.943,2.889 -5.943,6.359c0,3.511 2.612,6.412 5.943,6.412c1.901,-0 3.577,-0.976 4.669,-2.454l1.805,-2.447l6.149,5.574l-0,-14.536Zm-47.9,-22.358l-10.148,0l0,10.672l10.148,-0l0,-10.672Z" style="fill:#fff;fill-rule:nonzero;"/><rect x="80.606" y="18.713" width="10.148" height="10.672" style="fill:#ff9f22;"/></g><g><path d="M29.699,18.222c1.389,-1.856 4.026,-3.249 6.948,-3.249c2.922,-0 5.559,1.393 6.948,3.249c2.132,-0.912 5.112,-0.801 7.643,0.661c2.53,1.461 4.117,3.986 4.392,6.288c2.303,0.275 4.828,1.862 6.289,4.393c1.461,2.53 1.573,5.51 0.66,7.642c1.856,1.389 3.249,4.026 3.249,6.948c0,2.922 -1.393,5.559 -3.249,6.949c0.913,2.131 0.801,5.111 -0.66,7.642c-1.461,2.53 -3.986,4.117 -6.289,4.393c-0.275,2.302 -1.862,4.827 -4.392,6.288c-2.531,1.461 -5.511,1.573 -7.643,0.66c-1.389,1.856 -4.026,3.249 -6.948,3.249c-2.922,0 -5.559,-1.393 -6.948,-3.249c-2.132,0.913 -5.112,0.801 -7.643,-0.66c-2.53,-1.461 -4.117,-3.986 -4.392,-6.288c-2.303,-0.276 -4.828,-1.863 -6.289,-4.393c-1.461,-2.531 -1.573,-5.511 -0.66,-7.642c-1.856,-1.39 -3.249,-4.027 -3.249,-6.949c-0,-2.922 1.393,-5.559 3.249,-6.948c-0.913,-2.132 -0.801,-5.112 0.66,-7.642c1.461,-2.531 3.986,-4.118 6.289,-4.393c0.275,-2.302 1.862,-4.827 4.392,-6.288c2.531,-1.462 5.511,-1.573 7.643,-0.661Z" style="fill:#fff;"/><path d="M43.595,18.222c2.132,-0.912 5.112,-0.801 7.643,0.661c2.53,1.461 4.117,3.986 4.392,6.288c2.303,0.275 4.828,1.862 6.289,4.393c1.461,2.53 1.573,5.51 0.66,7.642c1.856,1.389 3.249,4.026 3.249,6.948c0,2.922 -1.393,5.559 -3.249,6.949c0.913,2.131 0.801,5.111 -0.66,7.642c-1.461,2.53 -3.986,4.117 -6.289,4.393c-0.275,2.302 -1.862,4.827 -4.392,6.288c-2.531,1.461 -5.511,1.573 -7.643,0.66c-1.389,1.856 -4.026,3.249 -6.948,3.249c-2.922,0 -5.559,-1.393 -6.948,-3.249c-2.132,0.913 -5.112,0.801 -7.643,-0.66c-2.53,-1.461 -4.117,-3.986 -4.392,-6.288c-2.303,-0.276 -4.828,-1.863 -6.289,-4.393c-1.461,-2.531 -1.573,-5.511 -0.66,-7.642c-1.856,-1.39 -3.249,-4.027 -3.249,-6.949c-0,-2.922 1.393,-5.559 3.249,-6.948c-0.913,-2.132 -0.801,-5.112 0.66,-7.642c1.461,-2.531 3.986,-4.118 6.289,-4.393c0.275,-2.302 1.862,-4.827 4.392,-6.288c2.531,-1.462 5.511,-1.573 7.643,-0.661c1.389,-1.856 4.026,-3.249 6.948,-3.249c2.922,-0 5.559,1.393 6.948,3.249Z" style="fill:#ffa10d;fill-opacity:0.62;"/><path d="M40.033,21.508c1.714,-0.988 4.251,-1.193 6.542,-0.209c2.292,0.983 3.891,2.963 4.355,4.887c1.979,0.001 4.278,1.092 5.771,3.09c1.493,1.998 1.887,4.512 1.328,6.41c1.713,0.991 3.159,3.085 3.453,5.562c0.293,2.476 -0.622,4.851 -2.055,6.215c0.988,1.714 1.193,4.251 0.209,6.542c-0.984,2.292 -2.964,3.891 -4.887,4.356c-0.002,1.978 -1.093,4.278 -3.091,5.77c-1.997,1.493 -4.512,1.888 -6.41,1.328c-0.99,1.713 -3.085,3.159 -5.561,3.453c-2.477,0.294 -4.851,-0.622 -6.215,-2.055c-1.715,0.988 -4.251,1.193 -6.543,0.209c-2.292,-0.984 -3.89,-2.964 -4.355,-4.887c-1.979,-0.002 -4.278,-1.093 -5.771,-3.09c-1.493,-1.998 -1.887,-4.512 -1.328,-6.41c-1.713,-0.991 -3.158,-3.086 -3.452,-5.562c-0.294,-2.476 0.621,-4.851 2.054,-6.215c-0.987,-1.715 -1.192,-4.251 -0.209,-6.543c0.984,-2.291 2.964,-3.89 4.887,-4.355c0.002,-1.979 1.093,-4.278 3.091,-5.771c1.998,-1.492 4.512,-1.887 6.41,-1.328c0.991,-1.712 3.085,-3.158 5.561,-3.452c2.477,-0.294 4.851,0.621 6.216,2.055Z" style="fill:#ffa10d;fill-opacity:0.47;"/><path d="M36.752,25.907c1.241,-0.975 3.22,-1.427 5.141,-0.912c1.922,0.515 3.41,1.896 3.997,3.361c1.562,-0.225 3.502,0.374 4.908,1.78c1.407,1.407 2.005,3.347 1.781,4.909c1.465,0.586 2.845,2.075 3.36,3.996c0.515,1.922 0.064,3.901 -0.912,5.141c0.976,1.241 1.427,3.22 0.912,5.141c-0.515,1.922 -1.895,3.41 -3.36,3.997c0.224,1.562 -0.374,3.502 -1.781,4.908c-1.406,1.407 -3.346,2.005 -4.908,1.781c-0.587,1.465 -2.075,2.846 -3.997,3.36c-1.921,0.515 -3.9,0.064 -5.141,-0.912c-1.24,0.976 -3.22,1.427 -5.141,0.912c-1.921,-0.514 -3.41,-1.895 -3.996,-3.36c-1.562,0.224 -3.502,-0.374 -4.909,-1.781c-1.406,-1.406 -2.005,-3.346 -1.78,-4.908c-1.466,-0.587 -2.846,-2.075 -3.361,-3.997c-0.515,-1.921 -0.063,-3.9 0.912,-5.141c-0.975,-1.24 -1.427,-3.219 -0.912,-5.141c0.515,-1.921 1.895,-3.41 3.361,-3.996c-0.225,-1.562 0.374,-3.502 1.78,-4.909c1.407,-1.406 3.347,-2.005 4.909,-1.78c0.586,-1.465 2.075,-2.846 3.996,-3.361c1.921,-0.515 3.901,-0.063 5.141,0.912Z" style="fill:#ffa10d;fill-opacity:0.76;"/><path d="M40.248,31.137c7.2,1.929 11.479,9.341 9.55,16.541c-1.929,7.2 -9.341,11.479 -16.541,9.55c-7.201,-1.929 -11.48,-9.341 -9.551,-16.541c1.93,-7.2 9.342,-11.48 16.542,-9.55Z" style="fill:#fff;"/></g></svg>