<?xml version="1.0" encoding="UTF-8" standalone="no"?><!DOCTYPE svg PUBLIC "-//W3C//DTD SVG 1.1//EN" "http://www.w3.org/Graphics/SVG/1.1/DTD/svg11.dtd"><svg width="100%" height="100%" viewBox="0 0 351 89" version="1.1" xmlns="http://www.w3.org/2000/svg" xmlns:xlink="http://www.w3.org/1999/xlink" xml:space="preserve" xmlns:serif="http://www.serif.com/" style="fill-rule:evenodd;clip-rule:evenodd;stroke-linejoin:round;stroke-miterlimit:2;"><rect id="Offsides" x="0" y="0" width="350.177" height="88.308" style="fill:none;"/><g id="Artboard1"><rect x="0" y="2.608" width="83.021" height="83.021" style="fill:none;"/><g><g><path d="M18.266,66.326c0.602,-0.066 1.187,-0.298 1.683,-0.691l10.11,-8.01l32.656,0l5.728,-30.726l4.299,-0l-6.404,34.35l-32.655,-0l-10.111,8.01c-1.073,0.851 -2.563,0.946 -3.736,0.238c-1.102,-0.664 -1.709,-1.906 -1.57,-3.171Z" style="fill:#2f54c6;"/></g><g><path d="M17.359,18.269l47.134,-0l-6.403,34.349l-32.655,0l-8.868,7.026c-1.268,1.005 -3.026,1.117 -4.411,0.281c-1.386,-0.835 -2.107,-2.442 -1.811,-4.033l7.014,-37.623Zm-1.602,35.683l6.595,-5.225c0.877,-0.695 1.963,-1.073 3.083,-1.073l28.53,-0l4.553,-24.421l-37.035,0l-5.726,30.719Z" style="fill:#0a122a;"/></g></g></g><path d="M108.698,65.376c-4.257,0 -7.724,-0.857 -10.4,-2.572c-2.676,-1.714 -4.392,-4.135 -5.148,-7.262c-0.757,-3.127 -0.475,-6.763 0.844,-10.908c1.319,-4.144 3.353,-7.78 6.1,-10.908c2.748,-3.127 6.005,-5.548 9.772,-7.262c3.768,-1.715 7.78,-2.572 12.038,-2.572c4.257,0 7.724,0.857 10.4,2.572c2.675,1.714 4.392,4.135 5.148,7.262c0.757,3.128 0.475,6.764 -0.844,10.908c-1.319,4.145 -3.353,7.781 -6.1,10.908c-2.748,3.127 -6.005,5.548 -9.772,7.262c-3.768,1.715 -7.78,2.572 -12.038,2.572Zm2.627,-8.252c2.374,0 4.639,-0.518 6.796,-1.554c2.158,-1.036 4.035,-2.496 5.634,-4.38c1.598,-1.884 2.793,-4.069 3.584,-6.556c0.792,-2.487 0.988,-4.672 0.589,-6.556c-0.398,-1.884 -1.347,-3.344 -2.844,-4.38c-1.498,-1.036 -3.433,-1.554 -5.807,-1.554c-2.374,-0 -4.63,0.518 -6.768,1.554c-2.139,1.036 -4.007,2.496 -5.605,4.38c-1.598,1.884 -2.793,4.069 -3.585,6.556c-0.791,2.487 -0.988,4.672 -0.589,6.556c0.399,1.884 1.338,3.344 2.816,4.38c1.479,1.036 3.405,1.554 5.779,1.554Z" style="fill:#0a122a;fill-rule:nonzero;"/><path d="M169.269,32.935l-19.951,0l-3.004,9.438l18.82,0l-2.501,7.856l-18.82,0l-4.515,14.186l-9.269,0l12.593,-39.562l29.22,0l-2.573,8.082Z" style="fill:#0a122a;fill-rule:nonzero;"/><path d="M198.602,32.935l-19.951,0l-3.005,9.438l18.821,0l-2.501,7.856l-18.82,0l-4.516,14.186l-9.269,0l12.594,-39.562l29.219,0l-2.572,8.082Z" style="fill:#0a122a;fill-rule:nonzero;"/><path d="M203.044,65.319c-3.24,0 -6.202,-0.489 -8.886,-1.469c-2.684,-0.98 -4.836,-2.355 -6.458,-4.126l6.945,-6.725c2.629,2.75 6.279,4.125 10.951,4.125c2.336,0 4.318,-0.395 5.945,-1.186c1.627,-0.792 2.656,-1.865 3.088,-3.222c0.408,-1.281 0.085,-2.279 -0.968,-2.995c-1.053,-0.716 -2.926,-1.225 -5.618,-1.526c-5.196,-0.603 -8.741,-1.865 -10.635,-3.787c-1.894,-1.922 -2.271,-4.672 -1.132,-8.251c0.768,-2.412 2.124,-4.541 4.068,-6.387c1.944,-1.846 4.302,-3.278 7.075,-4.295c2.773,-1.018 5.761,-1.526 8.964,-1.526c2.75,-0 5.309,0.395 7.676,1.187c2.366,0.791 4.32,1.902 5.861,3.334l-6.42,6.5c-2.406,-2.148 -5.474,-3.222 -9.204,-3.222c-2.299,0 -4.256,0.377 -5.871,1.131c-1.615,0.753 -2.626,1.77 -3.034,3.051c-0.396,1.244 -0.108,2.205 0.863,2.883c0.971,0.678 2.796,1.187 5.476,1.526c5.159,0.603 8.73,1.931 10.714,3.984c1.984,2.054 2.406,4.87 1.266,8.45c-0.791,2.486 -2.187,4.681 -4.187,6.584c-1.999,1.903 -4.426,3.372 -7.281,4.408c-2.854,1.036 -5.92,1.554 -9.198,1.554Z" style="fill:#0a122a;fill-rule:nonzero;"/><path d="M231.92,24.853l9.268,0l-12.593,39.562l-9.269,0l12.594,-39.562Z" style="fill:#0a122a;fill-rule:nonzero;"/><path d="M259.444,24.853c4.069,0 7.381,0.81 9.936,2.43c2.555,1.62 4.194,3.928 4.917,6.924c0.724,2.995 0.455,6.471 -0.804,10.427c-1.259,3.956 -3.204,7.432 -5.834,10.428c-2.63,2.995 -5.739,5.303 -9.325,6.923c-3.587,1.62 -7.415,2.43 -11.484,2.43l-16.22,0l12.593,-39.562l16.221,0Zm-10.021,31.48c3.315,0 6.326,-1.055 9.033,-3.165c2.706,-2.11 4.629,-4.954 5.768,-8.534c0.756,-2.374 0.951,-4.436 0.586,-6.189c-0.366,-1.752 -1.234,-3.108 -2.605,-4.069c-1.371,-0.961 -3.149,-1.441 -5.334,-1.441l-6.952,0l-7.448,23.398l6.952,0Z" style="fill:#0a122a;fill-rule:nonzero;"/><path d="M278.383,56.616l21.815,-0l-2.482,7.799l-30.802,0l12.593,-39.562l30.181,0l-2.465,7.743l-21.194,-0l-2.555,8.025l20.064,0l-2.375,7.461l-20.064,-0l-2.716,8.534Z" style="fill:#0a122a;fill-rule:nonzero;"/><path d="M312.292,65.319c-3.24,0 -6.202,-0.489 -8.886,-1.469c-2.684,-0.98 -4.836,-2.355 -6.458,-4.126l6.945,-6.725c2.629,2.75 6.279,4.125 10.951,4.125c2.336,0 4.318,-0.395 5.945,-1.186c1.627,-0.792 2.656,-1.865 3.088,-3.222c0.408,-1.281 0.085,-2.279 -0.968,-2.995c-1.053,-0.716 -2.926,-1.225 -5.618,-1.526c-5.196,-0.603 -8.741,-1.865 -10.635,-3.787c-1.894,-1.922 -2.271,-4.672 -1.132,-8.251c0.768,-2.412 2.124,-4.541 4.068,-6.387c1.944,-1.846 4.302,-3.278 7.075,-4.295c2.773,-1.018 5.761,-1.526 8.964,-1.526c2.75,-0 5.309,0.395 7.676,1.187c2.366,0.791 4.32,1.902 5.862,3.334l-6.421,6.5c-2.406,-2.148 -5.474,-3.222 -9.204,-3.222c-2.299,0 -4.256,0.377 -5.871,1.131c-1.615,0.753 -2.626,1.77 -3.034,3.051c-0.396,1.244 -0.108,2.205 0.863,2.883c0.971,0.678 2.796,1.187 5.477,1.526c5.158,0.603 8.729,1.931 10.713,3.984c1.984,2.054 2.406,4.87 1.266,8.45c-0.791,2.486 -2.187,4.681 -4.187,6.584c-1.999,1.903 -4.426,3.372 -7.281,4.408c-2.854,1.036 -5.92,1.554 -9.198,1.554Z" style="fill:#0a122a;fill-rule:nonzero;"/></svg>