<?xml version="1.0" encoding="UTF-8" standalone="no"?><!DOCTYPE svg PUBLIC "-//W3C//DTD SVG 1.1//EN" "http://www.w3.org/Graphics/SVG/1.1/DTD/svg11.dtd"><svg width="100%" height="100%" viewBox="0 0 333 89" version="1.1" xmlns="http://www.w3.org/2000/svg" xmlns:xlink="http://www.w3.org/1999/xlink" xml:space="preserve" xmlns:serif="http://www.serif.com/" style="fill-rule:evenodd;clip-rule:evenodd;stroke-linejoin:round;stroke-miterlimit:2;"><rect id="The-Caf-App" serif:id="The Caf App" x="0" y="0.473" width="331.92" height="88.308" style="fill:none;"/><g><g><path d="M104.168,55.46l-14.619,0l-0,-1.53c1.503,-0 2.658,-0.081 3.463,-0.242c0.295,-0.429 0.443,-2.806 0.443,-7.128l0,-17.761l-2.9,0c-1.449,0 -2.423,0.101 -2.919,0.302c-0.497,0.202 -0.853,0.652 -1.068,1.35c-0.375,0.805 -0.698,1.96 -0.966,3.463l-1.611,0l-0,-6.645l25.734,0l0,6.645l-1.611,0c-0.053,-0.322 -0.194,-0.919 -0.422,-1.792c-0.229,-0.873 -0.41,-1.43 -0.544,-1.671c-0.188,-0.698 -0.537,-1.148 -1.047,-1.35c-0.51,-0.201 -1.49,-0.302 -2.94,-0.302l-2.86,0l0,17.761c0,4.376 0.135,6.752 0.403,7.128c0.806,0.161 1.96,0.242 3.464,0.242l-0,1.53Z" style="fill:#ca9800;fill-rule:nonzero;"/><path d="M122.935,55.46l-11.115,0l-0,-1.289c1.423,0 2.335,-0.067 2.738,-0.201c0.215,-0.349 0.322,-2.134 0.322,-5.356l0,-19.895l-3.06,-0.806l-0,-1.087c2.389,-0.215 4.711,-0.98 6.967,-2.296l1.852,0.282l0,14.257c1.235,-1.369 2.403,-2.322 3.504,-2.859c1.101,-0.537 2.296,-0.806 3.584,-0.806c1.638,0 2.987,0.517 4.048,1.551c1.06,1.033 1.591,2.49 1.591,4.369l-0,7.249c-0,3.249 0.107,5.048 0.322,5.397c0.402,0.134 1.315,0.201 2.738,0.201l0,1.289l-11.115,0l-0,-1.289c0.94,0 1.611,-0.067 2.014,-0.201c0.188,-0.349 0.282,-2.148 0.282,-5.397l-0,-5.477c-0,-2.899 -1.115,-4.349 -3.343,-4.349c-1.557,-0 -2.766,0.523 -3.625,1.57l0,8.256c0,3.249 0.094,5.048 0.282,5.397c0.403,0.134 1.074,0.201 2.014,0.201l-0,1.289Z" style="fill:#ca9800;fill-rule:nonzero;"/><path d="M147.824,56.064c-2.82,0 -5.142,-0.946 -6.968,-2.839c-1.825,-1.893 -2.738,-4.356 -2.738,-7.39c-0,-2.873 0.933,-5.33 2.799,-7.37c1.866,-2.041 4.208,-3.061 7.027,-3.061c2.47,0 4.424,0.705 5.86,2.115c1.436,1.409 2.155,3.282 2.155,5.618l-13.049,-0l0,0.362c0,2.578 0.698,4.591 2.094,6.041c1.397,1.45 3.128,2.175 5.196,2.175c2.282,-0 4.027,-0.819 5.235,-2.457l0.806,0.604c-0.779,2.121 -1.94,3.685 -3.484,4.692c-1.544,1.007 -3.188,1.51 -4.933,1.51Zm-0.081,-19.25c-1.235,-0 -2.282,0.433 -3.141,1.299c-0.859,0.865 -1.396,2.124 -1.611,3.775l5.719,0c1.047,0 1.731,-0.102 2.053,-0.306c0.323,-0.205 0.484,-0.594 0.484,-1.167c-0,-1.064 -0.329,-1.93 -0.987,-2.598c-0.658,-0.669 -1.497,-1.003 -2.517,-1.003Z" style="fill:#ca9800;fill-rule:nonzero;"/><path d="M185.68,56.064c-1.933,0 -3.806,-0.268 -5.618,-0.805c-1.812,-0.537 -3.524,-1.349 -5.135,-2.437c-1.611,-1.087 -2.906,-2.591 -3.886,-4.51c-0.98,-1.92 -1.47,-4.115 -1.47,-6.585c-0,-2.363 0.497,-4.524 1.49,-6.484c0.993,-1.96 2.296,-3.551 3.907,-4.772c1.61,-1.222 3.382,-2.162 5.316,-2.819c1.933,-0.658 3.893,-0.987 5.879,-0.987c3.222,-0 6.068,0.765 8.538,2.296l0.202,5.275l-1.611,0c-0.242,-1.02 -0.443,-1.638 -0.604,-1.852c-0.43,-1.182 -1.162,-2.188 -2.195,-3.021c-1.034,-0.832 -2.464,-1.248 -4.289,-1.248c-1.101,-0 -2.182,0.241 -3.242,0.725c-1.061,0.483 -2.054,1.208 -2.981,2.174c-0.926,0.967 -1.678,2.316 -2.255,4.048c-0.577,1.732 -0.866,3.712 -0.866,5.94c0,4.35 0.94,7.706 2.819,10.068c1.88,2.363 4.135,3.544 6.766,3.544c1.638,0 2.981,-0.402 4.028,-1.208c1.047,-0.805 1.731,-1.745 2.054,-2.819c0.161,-0.215 0.416,-1.034 0.765,-2.457l1.611,0l-0,5.598c-2.524,1.558 -5.598,2.336 -9.223,2.336Z" style="fill:#ca9800;fill-rule:nonzero;"/><path d="M203.763,56.064c-1.504,0 -2.779,-0.47 -3.826,-1.409c-1.047,-0.94 -1.571,-2.135 -1.571,-3.585c0,-1.879 0.765,-3.383 2.296,-4.51c1.772,-1.047 4.389,-1.799 7.853,-2.256l1.047,-0.12l-0,-3.585c-0,-1.262 -0.221,-2.188 -0.662,-2.778c-0.441,-0.591 -1.144,-0.886 -2.107,-0.886c-0.936,-0 -1.625,0.214 -2.066,0.644c-0.442,0.429 -0.756,1.222 -0.943,2.376c-0.749,0.054 -1.491,0.154 -2.227,0.302c-0.735,0.148 -1.297,0.289 -1.685,0.423c-0.388,0.134 -0.649,0.242 -0.782,0.322c-0.268,0 -0.402,-0.268 -0.402,-0.805c0,-1.289 0.96,-2.41 2.88,-3.363c1.919,-0.953 4.249,-1.43 6.987,-1.43c2.363,0 4.088,0.342 5.175,1.027c1.088,0.685 1.631,1.765 1.631,3.242c0,1.987 -0.04,4.336 -0.121,7.048c-0.08,2.712 -0.12,4.403 -0.12,5.074c-0,0.645 0.134,1.101 0.402,1.37c0.269,0.268 0.725,0.402 1.37,0.402c0.725,0 1.329,-0.121 1.812,-0.362l0.242,1.127c-1.584,1.155 -3.665,1.732 -6.243,1.732c-1.825,0 -2.913,-0.859 -3.262,-2.577l0,-0.967c-1.584,2.363 -3.477,3.544 -5.678,3.544Zm5.718,-4.792l0,-5.8l-1.111,0.162c-1.668,0.241 -2.839,0.671 -3.514,1.288c-0.675,0.618 -1.013,1.504 -1.013,2.658c0,0.994 0.291,1.772 0.872,2.336c0.582,0.564 1.292,0.846 2.13,0.846c1.244,-0 2.123,-0.497 2.636,-1.49Z" style="fill:#ca9800;fill-rule:nonzero;"/><path d="M232.598,55.46l-12.646,0l0,-1.289c1.423,0 2.336,-0.067 2.739,-0.201c0.215,-0.349 0.322,-2.148 0.322,-5.397l0,-9.987l-2.94,-0.403l0,-0.886c1.047,-0.242 2.041,-0.711 2.98,-1.41c0.564,-3.57 1.853,-6.356 3.867,-8.356c2.013,-2 4.443,-3.001 7.289,-3.001c1.316,0 2.39,0.222 3.222,0.665c0.832,0.443 1.248,1.04 1.248,1.792c0,0.591 -0.241,1.081 -0.725,1.47c-0.483,0.389 -1.168,0.624 -2.054,0.705c-0.456,-0.215 -1.127,-0.926 -2.013,-2.135c-0.483,-0.671 -0.98,-1.006 -1.49,-1.006c-0.967,-0 -1.813,0.704 -2.537,2.114c-0.725,1.409 -1.088,3.645 -1.088,6.705l0,1.168l5.034,0l-0.322,2.578l-4.712,-0l0,9.987c0,3.249 0.094,5.048 0.282,5.397c0.403,0.134 1.584,0.201 3.544,0.201l0,1.289Z" style="fill:#ca9800;fill-rule:nonzero;"/><path d="M273.556,55.46l-14.337,0l-0,-1.53c1.753,-0 3.028,-0.081 3.825,-0.242c0,-0.832 -0.506,-2.577 -1.519,-5.235l-0.615,-1.652l-8.618,0l-0.575,1.531c-1.067,2.738 -1.6,4.524 -1.6,5.356c0.717,0.161 1.898,0.242 3.544,0.242l-0,1.53l-8.82,0l0,-1.53c0.698,-0 1.517,-0.067 2.457,-0.202c0.51,-0.537 1.436,-2.577 2.779,-6.121l8.175,-20.62l2.577,0l7.531,20.58c1.262,3.544 2.162,5.584 2.699,6.121c0.564,0.161 1.396,0.242 2.497,0.242l-0,1.53Zm-16.754,-20.378l-3.826,9.947l7.33,0l-3.504,-9.947Z" style="fill:#ca9800;fill-rule:nonzero;"/><path d="M297.518,45.231c0,3.329 -0.926,5.967 -2.779,7.913c-1.852,1.947 -4.094,2.92 -6.725,2.92c-1.987,0 -3.652,-0.577 -4.994,-1.732l-0,3.504c-0,3.195 0.107,4.994 0.322,5.397c0.403,0.134 1.584,0.201 3.544,0.201l0,1.289l-12.646,-0l0,-1.289c1.423,0 2.336,-0.067 2.739,-0.201c0.215,-0.349 0.322,-2.148 0.322,-5.397l0,-18.203l-3.061,-0.765l0,-1.128c2.363,-0.188 4.685,-0.94 6.968,-2.255l1.812,0.282l-0,2.899c1.852,-2.174 3.973,-3.262 6.363,-3.262c2.202,0 4.108,0.913 5.719,2.739c1.611,1.825 2.416,4.188 2.416,7.088Zm-11.478,-6.766c-1.154,-0 -2.161,0.47 -3.02,1.409l-0,13.17c0.886,0.644 1.933,0.966 3.141,0.966c1.53,0 2.806,-0.651 3.826,-1.953c1.02,-1.302 1.53,-3.215 1.53,-5.739c0,-2.416 -0.53,-4.329 -1.59,-5.739c-1.061,-1.409 -2.356,-2.114 -3.887,-2.114Z" style="fill:#ca9800;fill-rule:nonzero;"/><path d="M322.729,45.231c-0,3.329 -0.926,5.967 -2.779,7.913c-1.852,1.947 -4.094,2.92 -6.725,2.92c-1.987,0 -3.652,-0.577 -4.994,-1.732l-0,3.504c-0,3.195 0.107,4.994 0.322,5.397c0.403,0.134 1.584,0.201 3.544,0.201l-0,1.289l-12.646,-0l0,-1.289c1.423,0 2.336,-0.067 2.739,-0.201c0.215,-0.349 0.322,-2.148 0.322,-5.397l-0,-18.203l-3.061,-0.765l0,-1.128c2.363,-0.188 4.685,-0.94 6.967,-2.255l1.813,0.282l-0,2.899c1.852,-2.174 3.973,-3.262 6.363,-3.262c2.201,0 4.108,0.913 5.719,2.739c1.61,1.825 2.416,4.188 2.416,7.088Zm-11.478,-6.766c-1.154,-0 -2.161,0.47 -3.02,1.409l-0,13.17c0.886,0.644 1.933,0.966 3.141,0.966c1.53,0 2.806,-0.651 3.826,-1.953c1.02,-1.302 1.53,-3.215 1.53,-5.739c0,-2.416 -0.53,-4.329 -1.591,-5.739c-1.06,-1.409 -2.355,-2.114 -3.886,-2.114Z" style="fill:#ca9800;fill-rule:nonzero;"/></g><path d="M16.965,70.695l-3.053,-3.052l30.523,-30.523c-1.066,-2.325 -1.308,-4.736 -0.726,-7.231c0.581,-2.495 1.962,-4.833 4.142,-7.013c2.18,-2.132 4.821,-3.5 7.921,-4.106c3.101,-0.605 5.645,0.085 7.631,2.071c2.035,2.035 2.725,4.579 2.071,7.631c-0.654,3.052 -2.119,5.741 -4.396,8.067c-1.987,2.035 -4.203,3.367 -6.65,3.997c-2.447,0.63 -4.736,0.484 -6.868,-0.436l-4.869,4.869l22.674,22.674l-3.052,3.052l-22.674,-22.674l-22.674,22.674Zm9.084,-25.508l-8.648,-8.648c-2.471,-2.471 -3.755,-5.402 -3.852,-8.794c-0.097,-3.391 1.017,-6.395 3.343,-9.011l17.805,17.805l-8.648,8.648Z" style="fill:#ca9800;fill-rule:nonzero;"/></g></svg>