<?xml version="1.0" encoding="UTF-8" standalone="no"?><!DOCTYPE svg PUBLIC "-//W3C//DTD SVG 1.1//EN" "http://www.w3.org/Graphics/SVG/1.1/DTD/svg11.dtd"><svg width="100%" height="100%" viewBox="0 0 303 89" version="1.1" xmlns="http://www.w3.org/2000/svg" xmlns:xlink="http://www.w3.org/1999/xlink" xml:space="preserve" xmlns:serif="http://www.serif.com/" style="fill-rule:evenodd;clip-rule:evenodd;stroke-linejoin:round;stroke-miterlimit:2;"><rect id="wasteof" x="0" y="0.095" width="302.631" height="88.308" style="fill:none;"/><g><path d="M112.983,17.675l0,53.123l-105.299,0l-0,-53.123l105.299,0Zm-98.142,13.754l7.918,25.627l7.385,0l4.608,-16.706l4.857,16.599l6.844,-0c0,-0 7.381,-25.376 7.381,-25.483c0,-0.109 -7.994,-0 -7.994,-0l-3.061,15.878l-4.392,-15.878l-7.309,-0l-4.215,15.662l-3.669,-15.699l-8.353,0Z" style="fill:#fff;"/><g transform="matrix(3.02135,0,0,3.02135,-958.952,-807.385)"><g transform="matrix(14.2247,0,0,14.2247,359.094,283.233)"><path d="M0.11,-0l-0.07,-0.496l0.125,0l0.044,0.411l0.018,-0l0.064,-0.411l0.202,0l0.064,0.411l0.018,-0l0.044,-0.411l0.125,0l-0.07,0.496l-0.209,-0l-0.064,-0.411l-0.018,0l-0.064,0.411l-0.209,-0Z" style="fill:#fff;fill-rule:nonzero;"/></g><g transform="matrix(14.2247,0,0,14.2247,370.246,283.233)"><path d="M0.224,0.014c-0.035,0 -0.067,-0.006 -0.095,-0.019c-0.028,-0.012 -0.05,-0.03 -0.067,-0.054c-0.016,-0.023 -0.024,-0.052 -0.024,-0.086c0,-0.034 0.008,-0.063 0.025,-0.085c0.016,-0.023 0.038,-0.041 0.068,-0.052c0.028,-0.012 0.062,-0.018 0.099,-0.018l0.136,0l0,-0.028c-0,-0.023 -0.007,-0.042 -0.022,-0.057c-0.015,-0.015 -0.038,-0.023 -0.07,-0.023c-0.031,0 -0.055,0.007 -0.07,0.022c-0.015,0.014 -0.025,0.032 -0.03,0.055l-0.116,-0.039c0.008,-0.025 0.021,-0.048 0.039,-0.069c0.017,-0.021 0.041,-0.038 0.071,-0.051c0.029,-0.013 0.065,-0.02 0.108,-0.02c0.065,0 0.117,0.016 0.155,0.049c0.038,0.033 0.057,0.08 0.057,0.142l0,0.185c0,0.02 0.009,0.03 0.028,0.03l0.04,0l0,0.104l-0.084,-0c-0.025,-0 -0.045,-0.006 -0.061,-0.018c-0.016,-0.012 -0.024,-0.028 -0.024,-0.048l0,-0.001l-0.019,0c-0.003,0.008 -0.009,0.018 -0.018,0.032c-0.009,0.013 -0.024,0.024 -0.044,0.034c-0.02,0.01 -0.047,0.015 -0.082,0.015Zm0.022,-0.102c0.035,0 0.064,-0.01 0.087,-0.029c0.022,-0.02 0.033,-0.046 0.033,-0.079l0,-0.01l-0.127,0c-0.023,-0 -0.042,0.005 -0.055,0.015c-0.013,0.01 -0.02,0.024 -0.02,0.042c0,0.018 0.007,0.033 0.021,0.044c0.014,0.011 0.034,0.017 0.061,0.017Z" style="fill:#fff;fill-rule:nonzero;"/></g><g transform="matrix(14.2247,0,0,14.2247,378.411,283.233)"><path d="M0.276,0.014c-0.065,0 -0.118,-0.014 -0.159,-0.042c-0.041,-0.028 -0.066,-0.068 -0.075,-0.12l0.116,-0.03c0.005,0.023 0.012,0.042 0.023,0.055c0.011,0.013 0.025,0.023 0.041,0.028c0.017,0.006 0.035,0.009 0.054,0.009c0.029,-0 0.051,-0.005 0.065,-0.016c0.014,-0.01 0.021,-0.023 0.021,-0.038c-0,-0.015 -0.007,-0.027 -0.02,-0.036c-0.013,-0.008 -0.035,-0.015 -0.064,-0.02l-0.028,-0.005c-0.035,-0.007 -0.066,-0.016 -0.095,-0.028c-0.029,-0.011 -0.052,-0.027 -0.069,-0.048c-0.017,-0.021 -0.026,-0.047 -0.026,-0.08c0,-0.049 0.018,-0.087 0.054,-0.114c0.036,-0.026 0.083,-0.039 0.142,-0.039c0.055,0 0.101,0.012 0.138,0.037c0.037,0.025 0.061,0.057 0.072,0.097l-0.117,0.036c-0.005,-0.025 -0.016,-0.043 -0.033,-0.054c-0.016,-0.011 -0.036,-0.016 -0.06,-0.016c-0.024,0 -0.042,0.004 -0.055,0.012c-0.013,0.009 -0.019,0.02 -0.019,0.035c-0,0.016 0.007,0.028 0.02,0.035c0.013,0.008 0.031,0.014 0.054,0.018l0.028,0.005c0.037,0.007 0.071,0.015 0.101,0.026c0.031,0.011 0.055,0.027 0.072,0.047c0.018,0.021 0.027,0.048 0.027,0.083c-0,0.052 -0.019,0.092 -0.057,0.12c-0.037,0.029 -0.088,0.043 -0.151,0.043Z" style="fill:#fff;fill-rule:nonzero;"/></g><g transform="matrix(14.2247,0,0,14.2247,385.723,283.233)"><path d="M0.26,-0c-0.033,-0 -0.059,-0.01 -0.08,-0.031c-0.02,-0.02 -0.03,-0.047 -0.03,-0.081l0,-0.28l-0.124,0l0,-0.104l0.124,0l0,-0.154l0.126,0l0,0.154l0.136,0l0,0.104l-0.136,0l0,0.258c0,0.02 0.009,0.03 0.028,0.03l0.096,0l0,0.104l-0.14,-0Z" style="fill:#fff;fill-rule:nonzero;"/></g><g transform="matrix(14.2247,0,0,14.2247,391.953,283.233)"><path d="M0.296,0.014c-0.049,0 -0.093,-0.011 -0.13,-0.032c-0.038,-0.02 -0.067,-0.05 -0.088,-0.089c-0.021,-0.038 -0.032,-0.083 -0.032,-0.135l0,-0.012c0,-0.052 0.01,-0.097 0.031,-0.136c0.021,-0.038 0.05,-0.068 0.087,-0.089c0.037,-0.021 0.081,-0.031 0.13,-0.031c0.049,0 0.091,0.011 0.127,0.032c0.036,0.022 0.064,0.052 0.084,0.09c0.02,0.039 0.03,0.083 0.03,0.134l0,0.043l-0.361,0c0.001,0.034 0.014,0.062 0.038,0.083c0.024,0.021 0.053,0.032 0.088,0.032c0.035,-0 0.061,-0.008 0.078,-0.023c0.017,-0.015 0.029,-0.032 0.038,-0.051l0.103,0.054c-0.009,0.017 -0.023,0.036 -0.04,0.056c-0.018,0.021 -0.042,0.038 -0.071,0.052c-0.029,0.015 -0.067,0.022 -0.112,0.022Zm-0.121,-0.319l0.232,0c-0.003,-0.029 -0.014,-0.052 -0.035,-0.069c-0.02,-0.017 -0.046,-0.026 -0.079,-0.026c-0.034,-0 -0.061,0.009 -0.081,0.026c-0.02,0.017 -0.032,0.04 -0.037,0.069Z" style="fill:#fff;fill-rule:nonzero;"/></g><g transform="matrix(14.2247,0,0,14.2247,400.161,283.233)"><path d="M0.306,0.014c-0.049,0 -0.094,-0.01 -0.133,-0.03c-0.039,-0.02 -0.07,-0.049 -0.093,-0.087c-0.023,-0.038 -0.034,-0.084 -0.034,-0.137l0,-0.016c0,-0.053 0.011,-0.099 0.034,-0.137c0.023,-0.038 0.054,-0.067 0.093,-0.087c0.039,-0.02 0.084,-0.03 0.133,-0.03c0.049,0 0.094,0.01 0.133,0.03c0.039,0.02 0.07,0.049 0.093,0.087c0.023,0.038 0.034,0.084 0.034,0.137l0,0.016c0,0.053 -0.011,0.099 -0.034,0.137c-0.023,0.038 -0.054,0.067 -0.093,0.087c-0.039,0.02 -0.084,0.03 -0.133,0.03Zm-0,-0.112c0.039,-0 0.071,-0.013 0.096,-0.038c0.025,-0.025 0.038,-0.06 0.038,-0.107l0,-0.01c0,-0.047 -0.013,-0.083 -0.037,-0.108c-0.026,-0.025 -0.058,-0.037 -0.097,-0.037c-0.039,-0 -0.071,0.012 -0.096,0.037c-0.025,0.025 -0.038,0.061 -0.038,0.108l-0,0.01c-0,0.047 0.013,0.082 0.038,0.107c0.025,0.025 0.057,0.038 0.096,0.038Z" style="fill:#fff;fill-rule:nonzero;"/></g><g transform="matrix(14.2247,0,0,14.2247,408.639,283.233)"><path d="M0.152,-0l0,-0.392l-0.126,0l0,-0.104l0.126,0l0,-0.092c0,-0.034 0.01,-0.061 0.031,-0.082c0.02,-0.02 0.046,-0.03 0.079,-0.03l0.13,-0l0,0.104l-0.086,0c-0.019,0 -0.028,0.01 -0.028,0.03l0,0.07l0.13,-0l0,0.104l-0.13,-0l0,0.392l-0.126,-0Z" style="fill:#fff;fill-rule:nonzero;"/></g><g transform="matrix(7.33171,0,0,7.33171,359.094,290.565)"><path d="M0.152,-0l0,-0.392l-0.126,0l0,-0.104l0.126,0l0,-0.092c0,-0.034 0.01,-0.061 0.031,-0.082c0.02,-0.02 0.046,-0.03 0.079,-0.03l0.13,-0l0,0.104l-0.086,0c-0.019,0 -0.028,0.01 -0.028,0.03l0,0.07l0.13,-0l0,0.104l-0.13,-0l0,0.392l-0.126,-0Z" style="fill:#fff;fill-rule:nonzero;"/></g><g transform="matrix(7.33171,0,0,7.33171,362.174,290.565)"><path d="M0.306,0.014c-0.049,0 -0.094,-0.01 -0.133,-0.03c-0.039,-0.02 -0.07,-0.049 -0.093,-0.087c-0.023,-0.038 -0.034,-0.084 -0.034,-0.137l0,-0.016c0,-0.053 0.011,-0.099 0.034,-0.137c0.023,-0.038 0.054,-0.067 0.093,-0.087c0.039,-0.02 0.084,-0.03 0.133,-0.03c0.049,0 0.094,0.01 0.133,0.03c0.039,0.02 0.07,0.049 0.093,0.087c0.023,0.038 0.034,0.084 0.034,0.137l0,0.016c0,0.053 -0.011,0.099 -0.034,0.137c-0.023,0.038 -0.054,0.067 -0.093,0.087c-0.039,0.02 -0.084,0.03 -0.133,0.03Zm-0,-0.112c0.039,-0 0.071,-0.013 0.096,-0.038c0.025,-0.025 0.038,-0.06 0.038,-0.107l0,-0.01c0,-0.047 -0.013,-0.083 -0.037,-0.108c-0.026,-0.025 -0.058,-0.037 -0.097,-0.037c-0.039,-0 -0.071,0.012 -0.096,0.037c-0.025,0.025 -0.038,0.061 -0.038,0.108l-0,0.01c-0,0.047 0.013,0.082 0.038,0.107c0.025,0.025 0.057,0.038 0.096,0.038Z" style="fill:#fff;fill-rule:nonzero;"/></g><g transform="matrix(7.33171,0,0,7.33171,366.661,290.565)"><path d="M0.07,-0l0,-0.496l0.124,0l0,0.056l0.018,0c0.007,-0.02 0.019,-0.035 0.036,-0.044c0.017,-0.009 0.037,-0.014 0.06,-0.014l0.06,0l-0,0.112l-0.062,0c-0.032,0 -0.058,0.009 -0.079,0.026c-0.021,0.017 -0.031,0.043 -0.031,0.078l-0,0.282l-0.126,-0Z" style="fill:#fff;fill-rule:nonzero;"/></g><g transform="matrix(7.33171,0,0,7.33171,371.338,290.565)"><path d="M0.018,-0l0.184,-0.7l0.23,0l0.184,0.7l-0.136,-0l-0.038,-0.154l-0.25,0l-0.038,0.154l-0.136,-0Zm0.205,-0.276l0.188,0l-0.085,-0.341l-0.018,0l-0.085,0.341Z" style="fill:#fff;fill-rule:nonzero;"/></g><g transform="matrix(7.33171,0,0,7.33171,375.986,290.565)"><path d="M0.07,-0l0,-0.496l0.124,0l0,0.065l0.018,0c0.008,-0.017 0.023,-0.034 0.045,-0.049c0.022,-0.016 0.055,-0.024 0.1,-0.024c0.039,0 0.073,0.009 0.102,0.026c0.029,0.018 0.051,0.042 0.067,0.073c0.016,0.031 0.024,0.068 0.024,0.109l0,0.296l-0.126,-0l-0,-0.286c-0,-0.037 -0.009,-0.065 -0.028,-0.084c-0.018,-0.019 -0.044,-0.028 -0.078,-0.028c-0.039,0 -0.069,0.013 -0.09,0.039c-0.021,0.025 -0.032,0.061 -0.032,0.107l0,0.252l-0.126,0Z" style="fill:#fff;fill-rule:nonzero;"/></g><g transform="matrix(7.33171,0,0,7.33171,380.503,290.565)"><path d="M0.27,0.014c-0.039,0 -0.076,-0.01 -0.111,-0.029c-0.034,-0.02 -0.061,-0.049 -0.082,-0.087c-0.021,-0.038 -0.031,-0.084 -0.031,-0.138l-0,-0.016c-0,-0.054 0.01,-0.1 0.031,-0.138c0.021,-0.038 0.048,-0.067 0.082,-0.086c0.034,-0.02 0.071,-0.03 0.111,-0.03c0.03,0 0.055,0.003 0.076,0.011c0.02,0.007 0.036,0.015 0.049,0.026c0.013,0.011 0.022,0.022 0.029,0.034l0.018,-0l-0,-0.261l0.126,-0l0,0.7l-0.124,-0l-0,-0.06l-0.018,-0c-0.011,0.019 -0.029,0.036 -0.053,0.051c-0.023,0.015 -0.058,0.023 -0.103,0.023Zm0.038,-0.11c0.039,-0 0.071,-0.013 0.097,-0.038c0.026,-0.025 0.039,-0.061 0.039,-0.109l0,-0.01c0,-0.048 -0.013,-0.085 -0.038,-0.11c-0.026,-0.025 -0.059,-0.037 -0.098,-0.037c-0.039,-0 -0.071,0.012 -0.097,0.037c-0.026,0.025 -0.039,0.062 -0.039,0.11l-0,0.01c-0,0.048 0.013,0.084 0.039,0.109c0.026,0.025 0.058,0.038 0.097,0.038Z" style="fill:#fff;fill-rule:nonzero;"/></g><g transform="matrix(7.33171,0,0,7.33171,385.18,290.565)"><path d="M0.07,-0l0,-0.496l0.124,0l0,0.056l0.018,0c0.007,-0.02 0.019,-0.035 0.036,-0.044c0.017,-0.009 0.037,-0.014 0.06,-0.014l0.06,0l-0,0.112l-0.062,0c-0.032,0 -0.058,0.009 -0.079,0.026c-0.021,0.017 -0.031,0.043 -0.031,0.078l-0,0.282l-0.126,-0Z" style="fill:#fff;fill-rule:nonzero;"/></g><g transform="matrix(7.33171,0,0,7.33171,387.952,290.565)"><path d="M0.306,0.014c-0.049,0 -0.094,-0.01 -0.133,-0.03c-0.039,-0.02 -0.07,-0.049 -0.093,-0.087c-0.023,-0.038 -0.034,-0.084 -0.034,-0.137l0,-0.016c0,-0.053 0.011,-0.099 0.034,-0.137c0.023,-0.038 0.054,-0.067 0.093,-0.087c0.039,-0.02 0.084,-0.03 0.133,-0.03c0.049,0 0.094,0.01 0.133,0.03c0.039,0.02 0.07,0.049 0.093,0.087c0.023,0.038 0.034,0.084 0.034,0.137l0,0.016c0,0.053 -0.011,0.099 -0.034,0.137c-0.023,0.038 -0.054,0.067 -0.093,0.087c-0.039,0.02 -0.084,0.03 -0.133,0.03Zm-0,-0.112c0.039,-0 0.071,-0.013 0.096,-0.038c0.025,-0.025 0.038,-0.06 0.038,-0.107l0,-0.01c0,-0.047 -0.013,-0.083 -0.037,-0.108c-0.026,-0.025 -0.058,-0.037 -0.097,-0.037c-0.039,-0 -0.071,0.012 -0.096,0.037c-0.025,0.025 -0.038,0.061 -0.038,0.108l-0,0.01c-0,0.047 0.013,0.082 0.038,0.107c0.025,0.025 0.057,0.038 0.096,0.038Z" style="fill:#fff;fill-rule:nonzero;"/></g><g transform="matrix(7.33171,0,0,7.33171,392.439,290.565)"><path d="M0.07,-0l0,-0.496l0.126,0l0,0.496l-0.126,-0Zm0.063,-0.554c-0.023,0 -0.042,-0.007 -0.058,-0.022c-0.015,-0.015 -0.023,-0.034 -0.023,-0.058c0,-0.024 0.008,-0.043 0.023,-0.058c0.016,-0.015 0.035,-0.022 0.058,-0.022c0.023,0 0.043,0.007 0.058,0.022c0.015,0.015 0.023,0.034 0.023,0.058c0,0.024 -0.008,0.043 -0.023,0.058c-0.015,0.015 -0.035,0.022 -0.058,0.022Z" style="fill:#fff;fill-rule:nonzero;"/></g><g transform="matrix(7.33171,0,0,7.33171,394.389,290.565)"><path d="M0.27,0.014c-0.039,0 -0.076,-0.01 -0.111,-0.029c-0.034,-0.02 -0.061,-0.049 -0.082,-0.087c-0.021,-0.038 -0.031,-0.084 -0.031,-0.138l-0,-0.016c-0,-0.054 0.01,-0.1 0.031,-0.138c0.021,-0.038 0.048,-0.067 0.082,-0.086c0.034,-0.02 0.071,-0.03 0.111,-0.03c0.03,0 0.055,0.003 0.076,0.011c0.02,0.007 0.036,0.015 0.049,0.026c0.013,0.011 0.022,0.022 0.029,0.034l0.018,-0l-0,-0.261l0.126,-0l0,0.7l-0.124,-0l-0,-0.06l-0.018,-0c-0.011,0.019 -0.029,0.036 -0.053,0.051c-0.023,0.015 -0.058,0.023 -0.103,0.023Zm0.038,-0.11c0.039,-0 0.071,-0.013 0.097,-0.038c0.026,-0.025 0.039,-0.061 0.039,-0.109l0,-0.01c0,-0.048 -0.013,-0.085 -0.038,-0.11c-0.026,-0.025 -0.059,-0.037 -0.098,-0.037c-0.039,-0 -0.071,0.012 -0.097,0.037c-0.026,0.025 -0.039,0.062 -0.039,0.11l-0,0.01c-0,0.048 0.013,0.084 0.039,0.109c0.026,0.025 0.058,0.038 0.097,0.038Z" style="fill:#fff;fill-rule:nonzero;"/></g></g></g></svg>