<?xml version="1.0" encoding="UTF-8" standalone="no"?><!DOCTYPE svg PUBLIC "-//W3C//DTD SVG 1.1//EN" "http://www.w3.org/Graphics/SVG/1.1/DTD/svg11.dtd"><svg width="100%" height="100%" viewBox="0 0 303 89" version="1.1" xmlns="http://www.w3.org/2000/svg" xmlns:xlink="http://www.w3.org/1999/xlink" xml:space="preserve" xmlns:serif="http://www.serif.com/" style="fill-rule:evenodd;clip-rule:evenodd;stroke-linejoin:round;stroke-miterlimit:2;"><rect id="Caf-Data" serif:id="Caf Data" x="0" y="0.433" width="302.631" height="88.308" style="fill:none;"/><g><g transform="matrix(0.246769,0,0,0.246769,-485.048,-836.699)"><g transform="matrix(235.322,0,0,235.322,2286.4,3659.59)"><path d="M0.694,-0.482l-0.133,0c-0.003,-0.022 -0.01,-0.041 -0.021,-0.058c-0.01,-0.017 -0.022,-0.031 -0.038,-0.043c-0.015,-0.012 -0.032,-0.021 -0.051,-0.027c-0.019,-0.006 -0.04,-0.009 -0.063,-0.009c-0.039,0 -0.074,0.01 -0.105,0.03c-0.03,0.019 -0.054,0.048 -0.071,0.086c-0.018,0.038 -0.026,0.085 -0.026,0.139c-0,0.056 0.008,0.103 0.026,0.141c0.017,0.038 0.041,0.066 0.072,0.086c0.03,0.019 0.065,0.029 0.104,0.029c0.022,-0 0.042,-0.003 0.061,-0.009c0.019,-0.006 0.037,-0.014 0.052,-0.026c0.015,-0.011 0.028,-0.025 0.039,-0.042c0.01,-0.016 0.017,-0.035 0.021,-0.056l0.133,0c-0.005,0.035 -0.015,0.067 -0.032,0.098c-0.016,0.03 -0.038,0.057 -0.064,0.08c-0.027,0.023 -0.058,0.041 -0.093,0.054c-0.036,0.012 -0.075,0.019 -0.119,0.019c-0.064,-0 -0.121,-0.015 -0.171,-0.044c-0.05,-0.03 -0.09,-0.073 -0.118,-0.129c-0.029,-0.056 -0.044,-0.123 -0.044,-0.201c0,-0.078 0.015,-0.145 0.044,-0.201c0.029,-0.056 0.069,-0.098 0.119,-0.128c0.05,-0.029 0.107,-0.044 0.17,-0.044c0.041,-0 0.078,0.005 0.113,0.017c0.035,0.011 0.066,0.028 0.093,0.05c0.028,0.022 0.05,0.048 0.068,0.08c0.017,0.032 0.029,0.068 0.034,0.108Z" style="fill:#fff;fill-rule:nonzero;"/></g><g transform="matrix(235.322,0,0,235.322,2448.21,3659.59)"><path d="M0.223,0.011c-0.035,0 -0.066,-0.006 -0.093,-0.019c-0.028,-0.012 -0.05,-0.03 -0.066,-0.055c-0.016,-0.024 -0.024,-0.054 -0.024,-0.09c0,-0.031 0.006,-0.056 0.018,-0.076c0.011,-0.021 0.026,-0.037 0.046,-0.049c0.02,-0.012 0.042,-0.021 0.067,-0.027c0.024,-0.006 0.05,-0.011 0.077,-0.014c0.031,-0.003 0.057,-0.006 0.077,-0.009c0.02,-0.003 0.035,-0.007 0.044,-0.013c0.009,-0.006 0.013,-0.015 0.013,-0.027l0,-0.002c0,-0.027 -0.007,-0.047 -0.023,-0.062c-0.016,-0.015 -0.039,-0.022 -0.069,-0.022c-0.031,-0 -0.056,0.007 -0.075,0.02c-0.018,0.014 -0.03,0.03 -0.037,0.049l-0.12,-0.017c0.01,-0.033 0.025,-0.061 0.047,-0.083c0.022,-0.023 0.049,-0.039 0.08,-0.051c0.032,-0.011 0.066,-0.017 0.104,-0.017c0.027,0 0.053,0.004 0.079,0.01c0.026,0.006 0.05,0.016 0.071,0.03c0.022,0.014 0.039,0.033 0.052,0.057c0.013,0.025 0.02,0.055 0.02,0.091l0,0.365l-0.124,0l0,-0.075l-0.004,0c-0.008,0.015 -0.019,0.029 -0.033,0.043c-0.014,0.013 -0.031,0.023 -0.053,0.031c-0.021,0.008 -0.046,0.012 -0.074,0.012Zm0.033,-0.094c0.026,-0 0.049,-0.006 0.068,-0.016c0.018,-0.01 0.033,-0.024 0.043,-0.041c0.011,-0.017 0.016,-0.036 0.016,-0.056l-0,-0.064c-0.004,0.003 -0.011,0.006 -0.021,0.009c-0.009,0.003 -0.02,0.006 -0.032,0.008c-0.012,0.002 -0.023,0.004 -0.035,0.005c-0.012,0.002 -0.022,0.004 -0.03,0.005c-0.019,0.002 -0.036,0.007 -0.052,0.012c-0.015,0.006 -0.027,0.015 -0.035,0.025c-0.009,0.011 -0.014,0.024 -0.014,0.041c0,0.023 0.009,0.041 0.026,0.053c0.018,0.013 0.04,0.019 0.066,0.019Z" style="fill:#fff;fill-rule:nonzero;"/></g><g transform="matrix(235.322,0,0,235.322,2570.24,3659.59)"><path d="M0.342,-0.545l0,0.099l-0.322,-0l-0,-0.099l0.322,-0Zm-0.242,0.545l0,-0.597c0,-0.037 0.008,-0.067 0.023,-0.092c0.016,-0.024 0.036,-0.042 0.062,-0.054c0.026,-0.012 0.054,-0.018 0.086,-0.018c0.022,-0 0.042,0.001 0.059,0.005c0.018,0.004 0.03,0.007 0.039,0.01l-0.026,0.099c-0.005,-0.002 -0.012,-0.003 -0.021,-0.005c-0.008,-0.002 -0.017,-0.003 -0.027,-0.003c-0.024,0 -0.041,0.006 -0.051,0.017c-0.01,0.012 -0.015,0.028 -0.015,0.05l0,0.588l-0.129,-0Z" style="fill:#fff;fill-rule:nonzero;"/></g><g transform="matrix(235.322,0,0,235.322,2691.05,3659.59)"><path d="M0.318,-0l-0.246,-0l-0,-0.727l0.251,-0c0.072,-0 0.134,0.014 0.186,0.043c0.052,0.029 0.092,0.071 0.12,0.125c0.028,0.054 0.042,0.119 0.042,0.195c0,0.075 -0.014,0.141 -0.042,0.195c-0.028,0.054 -0.068,0.096 -0.121,0.125c-0.053,0.029 -0.116,0.044 -0.19,0.044Zm-0.115,-0.114l0.109,0c0.05,0 0.093,-0.009 0.127,-0.028c0.033,-0.018 0.059,-0.046 0.076,-0.083c0.017,-0.037 0.025,-0.084 0.025,-0.139c0,-0.056 -0.008,-0.102 -0.025,-0.139c-0.017,-0.037 -0.042,-0.064 -0.076,-0.083c-0.033,-0.018 -0.074,-0.027 -0.123,-0.027l-0.113,-0l0,0.499Z" style="fill:#335de5;fill-rule:nonzero;"/></g><g transform="matrix(235.322,0,0,235.322,2848.34,3659.59)"><path d="M0.223,0.011c-0.035,0 -0.066,-0.006 -0.093,-0.019c-0.028,-0.012 -0.05,-0.03 -0.066,-0.055c-0.016,-0.024 -0.024,-0.054 -0.024,-0.09c0,-0.031 0.006,-0.056 0.018,-0.076c0.011,-0.021 0.026,-0.037 0.046,-0.049c0.02,-0.012 0.042,-0.021 0.067,-0.027c0.024,-0.006 0.05,-0.011 0.077,-0.014c0.031,-0.003 0.057,-0.006 0.077,-0.009c0.02,-0.003 0.035,-0.007 0.044,-0.013c0.009,-0.006 0.013,-0.015 0.013,-0.027l0,-0.002c0,-0.027 -0.007,-0.047 -0.023,-0.062c-0.016,-0.015 -0.039,-0.022 -0.069,-0.022c-0.031,-0 -0.056,0.007 -0.075,0.02c-0.018,0.014 -0.03,0.03 -0.037,0.049l-0.12,-0.017c0.01,-0.033 0.025,-0.061 0.047,-0.083c0.022,-0.023 0.049,-0.039 0.08,-0.051c0.032,-0.011 0.066,-0.017 0.104,-0.017c0.027,0 0.053,0.004 0.079,0.01c0.026,0.006 0.05,0.016 0.071,0.03c0.022,0.014 0.039,0.033 0.052,0.057c0.013,0.025 0.02,0.055 0.02,0.091l0,0.365l-0.124,0l0,-0.075l-0.004,0c-0.008,0.015 -0.019,0.029 -0.033,0.043c-0.014,0.013 -0.031,0.023 -0.053,0.031c-0.021,0.008 -0.046,0.012 -0.074,0.012Zm0.033,-0.094c0.026,-0 0.049,-0.006 0.068,-0.016c0.018,-0.01 0.033,-0.024 0.043,-0.041c0.011,-0.017 0.016,-0.036 0.016,-0.056l-0,-0.064c-0.004,0.003 -0.011,0.006 -0.021,0.009c-0.009,0.003 -0.02,0.006 -0.032,0.008c-0.012,0.002 -0.023,0.004 -0.035,0.005c-0.012,0.002 -0.022,0.004 -0.03,0.005c-0.019,0.002 -0.036,0.007 -0.052,0.012c-0.015,0.006 -0.027,0.015 -0.035,0.025c-0.009,0.011 -0.014,0.024 -0.014,0.041c0,0.023 0.009,0.041 0.026,0.053c0.018,0.013 0.04,0.019 0.066,0.019Z" style="fill:#335de5;fill-rule:nonzero;"/></g><g transform="matrix(235.322,0,0,235.322,2970.38,3659.59)"><path d="M0.338,-0.545l0,0.099l-0.313,-0l-0,-0.099l0.313,-0Zm-0.236,-0.131l0.129,-0l-0,0.512c-0,0.017 0.002,0.03 0.008,0.04c0.005,0.009 0.012,0.015 0.021,0.018c0.009,0.003 0.018,0.005 0.029,0.005c0.008,0 0.016,-0 0.022,-0.002c0.007,-0.001 0.012,-0.002 0.016,-0.003l0.021,0.101c-0.006,0.002 -0.016,0.005 -0.029,0.007c-0.013,0.003 -0.028,0.005 -0.046,0.005c-0.032,0.001 -0.061,-0.004 -0.087,-0.014c-0.026,-0.011 -0.046,-0.028 -0.062,-0.051c-0.015,-0.022 -0.022,-0.051 -0.022,-0.085l0,-0.533Z" style="fill:#335de5;fill-rule:nonzero;"/></g><g transform="matrix(235.322,0,0,235.322,3046.61,3659.59)"><path d="M0.223,0.011c-0.035,0 -0.066,-0.006 -0.093,-0.019c-0.028,-0.012 -0.05,-0.03 -0.066,-0.055c-0.016,-0.024 -0.024,-0.054 -0.024,-0.09c0,-0.031 0.006,-0.056 0.018,-0.076c0.011,-0.021 0.026,-0.037 0.046,-0.049c0.02,-0.012 0.042,-0.021 0.067,-0.027c0.024,-0.006 0.05,-0.011 0.077,-0.014c0.031,-0.003 0.057,-0.006 0.077,-0.009c0.02,-0.003 0.035,-0.007 0.044,-0.013c0.009,-0.006 0.013,-0.015 0.013,-0.027l0,-0.002c0,-0.027 -0.007,-0.047 -0.023,-0.062c-0.016,-0.015 -0.039,-0.022 -0.069,-0.022c-0.031,-0 -0.056,0.007 -0.075,0.02c-0.018,0.014 -0.03,0.03 -0.037,0.049l-0.12,-0.017c0.01,-0.033 0.025,-0.061 0.047,-0.083c0.022,-0.023 0.049,-0.039 0.08,-0.051c0.032,-0.011 0.066,-0.017 0.104,-0.017c0.027,0 0.053,0.004 0.079,0.01c0.026,0.006 0.05,0.016 0.071,0.03c0.022,0.014 0.039,0.033 0.052,0.057c0.013,0.025 0.02,0.055 0.02,0.091l0,0.365l-0.124,0l0,-0.075l-0.004,0c-0.008,0.015 -0.019,0.029 -0.033,0.043c-0.014,0.013 -0.031,0.023 -0.053,0.031c-0.021,0.008 -0.046,0.012 -0.074,0.012Zm0.033,-0.094c0.026,-0 0.049,-0.006 0.068,-0.016c0.018,-0.01 0.033,-0.024 0.043,-0.041c0.011,-0.017 0.016,-0.036 0.016,-0.056l-0,-0.064c-0.004,0.003 -0.011,0.006 -0.021,0.009c-0.009,0.003 -0.02,0.006 -0.032,0.008c-0.012,0.002 -0.023,0.004 -0.035,0.005c-0.012,0.002 -0.022,0.004 -0.03,0.005c-0.019,0.002 -0.036,0.007 -0.052,0.012c-0.015,0.006 -0.027,0.015 -0.035,0.025c-0.009,0.011 -0.014,0.024 -0.014,0.041c0,0.023 0.009,0.041 0.026,0.053c0.018,0.013 0.04,0.019 0.066,0.019Z" style="fill:#335de5;fill-rule:nonzero;"/></g></g><path d="M9.617,70.656l-3.052,-3.052l30.523,-30.523c-1.066,-2.326 -1.308,-4.736 -0.727,-7.231c0.582,-2.495 1.963,-4.833 4.143,-7.013c2.18,-2.132 4.82,-3.5 7.921,-4.106c3.101,-0.606 5.644,0.085 7.631,2.071c2.035,2.035 2.725,4.579 2.071,7.631c-0.654,3.052 -2.12,5.741 -4.397,8.067c-1.986,2.035 -4.203,3.367 -6.649,3.997c-2.447,0.63 -4.736,0.484 -6.868,-0.436l-4.869,4.869l22.674,22.674l-3.052,3.052l-22.674,-22.674l-22.675,22.674Zm9.085,-25.508l-8.649,-8.648c-2.47,-2.471 -3.754,-5.402 -3.851,-8.794c-0.097,-3.391 1.017,-6.395 3.343,-9.011l17.805,17.805l-8.648,8.648Z" style="fill:#335de5;fill-rule:nonzero;"/></g></svg>