<?xml version="1.0" encoding="UTF-8" standalone="no"?><!DOCTYPE svg PUBLIC "-//W3C//DTD SVG 1.1//EN" "http://www.w3.org/Graphics/SVG/1.1/DTD/svg11.dtd"><svg width="100%" height="100%" viewBox="0 0 246 89" version="1.1" xmlns="http://www.w3.org/2000/svg" xmlns:xlink="http://www.w3.org/1999/xlink" xml:space="preserve" xmlns:serif="http://www.serif.com/" style="fill-rule:evenodd;clip-rule:evenodd;stroke-linejoin:round;stroke-miterlimit:2;"><rect id="Glyde" x="0" y="0.262" width="245.589" height="88.308" style="fill:none;"/><g><path d="M12.476,56.703l-0,-32.552l21.461,-11.981l20.722,11.569c4.474,2.498 7.247,7.221 7.247,12.345l-0,5.396l-27.969,-15.614l-10.731,5.99l0,17.141l21.581,12.049l6.841,-3.819l-10.445,-5.831c-4.474,-2.498 -7.246,-7.221 -7.246,-12.345l-0,-5.397l27.969,15.615l-0,15.916l-17.119,9.557l-32.311,-18.039Z" style="fill:#fff;"/><path d="M104.388,59.323c-1.86,0 -3.631,-0.321 -5.314,-0.964c-1.682,-0.642 -3.169,-1.593 -4.461,-2.852c-1.293,-1.259 -2.312,-2.816 -3.057,-4.671c-0.745,-1.855 -1.118,-3.995 -1.118,-6.42c-0,-3.167 0.626,-5.861 1.877,-8.08c1.251,-2.22 2.934,-3.913 5.046,-5.079c2.113,-1.166 4.455,-1.749 7.027,-1.749c3.801,-0 6.79,0.855 8.964,2.564c2.175,1.709 3.631,4.128 4.37,7.255l-5.703,0.795c-0.534,-1.669 -1.405,-3.005 -2.616,-4.005c-1.21,-1.001 -2.759,-1.507 -4.646,-1.521c-1.874,-0.026 -3.433,0.365 -4.677,1.173c-1.245,0.808 -2.178,1.955 -2.801,3.439c-0.622,1.484 -0.933,3.22 -0.933,5.208c0,1.987 0.311,3.71 0.933,5.168c0.623,1.457 1.556,2.59 2.801,3.399c1.244,0.808 2.803,1.225 4.677,1.252c1.272,0.026 2.424,-0.186 3.456,-0.636c1.033,-0.451 1.905,-1.16 2.616,-2.127c0.711,-0.967 1.217,-2.206 1.518,-3.717l-4.677,-0l-0,-4.174l10.626,-0c0.027,0.172 0.048,0.477 0.062,0.914c0.013,0.437 0.02,0.689 0.02,0.755c0,2.744 -0.574,5.175 -1.723,7.295c-1.149,2.121 -2.769,3.78 -4.862,4.98c-2.092,1.199 -4.561,1.798 -7.405,1.798Z" style="fill:#fff;fill-opacity:0.71;fill-rule:nonzero;"/><path d="M126.994,58.727l-0,-28.623l5.58,0l-0,23.574l12.719,0l-0,5.049l-18.299,0Z" style="fill:#fff;fill-opacity:0.71;fill-rule:nonzero;"/><path d="M156.001,58.727l-0,-11.648l-10.093,-16.975l6.523,0l6.401,10.774l6.4,-10.774l6.524,0l-10.093,16.975l-0,11.648l-5.662,0Z" style="fill:#fff;fill-opacity:0.71;fill-rule:nonzero;"/><path d="M178.73,58.727l0,-28.623l9.56,0c0.232,0 0.711,0.007 1.436,0.02c0.725,0.013 1.422,0.06 2.092,0.139c2.38,0.278 4.397,1.08 6.052,2.405c1.655,1.325 2.913,3.008 3.775,5.049c0.861,2.041 1.292,4.274 1.292,6.699c-0,2.425 -0.431,4.657 -1.292,6.698c-0.862,2.041 -2.12,3.724 -3.775,5.049c-1.655,1.325 -3.672,2.127 -6.052,2.405c-0.67,0.08 -1.367,0.126 -2.092,0.139c-0.725,0.013 -1.204,0.02 -1.436,0.02l-9.56,0Zm5.662,-5.088l3.898,-0c0.369,-0 0.868,-0.01 1.497,-0.03c0.63,-0.02 1.197,-0.076 1.703,-0.169c1.286,-0.252 2.335,-0.835 3.149,-1.749c0.814,-0.915 1.415,-2.015 1.805,-3.3c0.39,-1.285 0.585,-2.61 0.585,-3.975c-0,-1.432 -0.202,-2.79 -0.605,-4.075c-0.404,-1.286 -1.016,-2.372 -1.836,-3.26c-0.821,-0.888 -1.853,-1.451 -3.098,-1.69c-0.506,-0.106 -1.073,-0.165 -1.703,-0.178c-0.629,-0.014 -1.128,-0.02 -1.497,-0.02l-3.898,-0l0,18.446Z" style="fill:#fff;fill-opacity:0.71;fill-rule:nonzero;"/><path d="M211.963,58.727l0,-28.623l19.283,0l0,5.049l-13.703,-0l-0,6.122l11.242,0l-0,5.049l-11.242,-0l-0,7.354l13.703,0l0,5.049l-19.283,0Z" style="fill:#fff;fill-opacity:0.71;fill-rule:nonzero;"/></g></svg>