<?xml version="1.0" encoding="UTF-8" standalone="no"?><!DOCTYPE svg PUBLIC "-//W3C//DTD SVG 1.1//EN" "http://www.w3.org/Graphics/SVG/1.1/DTD/svg11.dtd"><svg width="100%" height="100%" viewBox="0 0 310 89" version="1.1" xmlns="http://www.w3.org/2000/svg" xmlns:xlink="http://www.w3.org/1999/xlink" xml:space="preserve" xmlns:serif="http://www.serif.com/" style="fill-rule:evenodd;clip-rule:evenodd;stroke-linejoin:round;stroke-miterlimit:2;"><rect id="Tzutujil" x="0" y="0.382" width="309.03" height="88.308" style="fill:none;"/><path d="M9.04,22.964c-0,-3.971 3.219,-7.191 7.191,-7.191l33.077,0c3.971,0 7.19,3.22 7.19,7.191l0,40.987c0,1.191 -0.966,2.157 -2.157,2.157l-40.987,-0c0,1.588 1.288,2.876 2.877,2.876l38.11,0c1.191,0 2.157,0.966 2.157,2.157c0,1.192 -0.966,2.157 -2.157,2.157l-38.11,0c-3.972,0 -7.191,-3.219 -7.191,-7.19l-0,-43.144Zm18.843,5.372c-4.516,1.879 -7.806,6.112 -8.34,11.166l6.059,0c0.119,-3.594 0.679,-6.893 1.572,-9.443c0.21,-0.6 0.445,-1.18 0.709,-1.723Zm9.605,-0.333c0.332,0.637 0.623,1.331 0.876,2.056c0.893,2.55 1.453,5.849 1.572,9.443l6.779,0c-0.569,-5.38 -4.26,-9.828 -9.227,-11.499Zm-1.869,11.499c-0.117,-3.198 -0.62,-5.997 -1.327,-8.018c-0.409,-1.169 -0.847,-1.962 -1.226,-2.419c-0.131,-0.159 -0.23,-0.25 -0.297,-0.301c-0.067,0.051 -0.166,0.142 -0.297,0.301c-0.379,0.457 -0.817,1.25 -1.226,2.419c-0.707,2.021 -1.21,4.82 -1.327,8.018l5.7,0Zm-5.62,4.315c0.196,2.598 0.648,4.868 1.247,6.58c0.409,1.169 0.847,1.961 1.226,2.419c0.131,0.159 0.23,0.25 0.297,0.301c0.067,-0.051 0.166,-0.142 0.297,-0.301c0.379,-0.458 0.817,-1.25 1.226,-2.419c0.599,-1.712 1.051,-3.982 1.247,-6.58l-5.54,-0Zm-4.325,-0l-5.907,-0c0.944,4.43 4.036,8.065 8.133,9.764c-0.271,-0.554 -0.512,-1.146 -0.726,-1.759c-0.772,-2.206 -1.296,-4.972 -1.5,-8.005Zm11.796,10.095c4.535,-1.518 8.009,-5.351 9.021,-10.095l-6.627,-0c-0.204,3.033 -0.728,5.799 -1.5,8.005c-0.258,0.737 -0.554,1.443 -0.894,2.09Z" style="fill:#00f0a0;fill-rule:nonzero;"/><path d="M73.527,32.964l-0,-4.491l23.596,0l-0,4.491l-9.141,0l-0,25.084l-5.315,-0l0,-25.084l-9.14,0Z" style="fill:#fff;fill-rule:nonzero;"/><path d="M99.289,58.048l-0,-3.321l11.437,-14.34l-0,-0.188l-11.062,0l0,-4.332l17.459,0l-0,3.567l-10.888,14.094l-0,0.188l11.263,-0l0,4.332l-18.209,-0Z" style="fill:#fff;fill-rule:nonzero;"/><path d="M136.56,48.719l0,-12.852l5.228,0l-0,22.181l-5.069,-0l-0,-3.942l-0.231,-0c-0.501,1.242 -1.321,2.257 -2.462,3.047c-1.141,0.789 -2.544,1.184 -4.21,1.184c-1.453,-0 -2.736,-0.325 -3.848,-0.975c-1.112,-0.65 -1.981,-1.598 -2.607,-2.845c-0.625,-1.247 -0.938,-2.756 -0.938,-4.527l-0,-14.123l5.227,0l0,13.314c0,1.406 0.385,2.523 1.155,3.351c0.771,0.828 1.782,1.241 3.033,1.241c0.77,0 1.516,-0.187 2.238,-0.563c0.722,-0.375 1.317,-0.936 1.784,-1.682c0.467,-0.746 0.7,-1.682 0.7,-2.809Z" style="fill:#fff;fill-rule:nonzero;"/><path d="M158.236,35.867l-0,4.043l-12.752,0l0,-4.043l12.752,0Zm-9.603,-5.314l5.227,-0l0,20.823c0,0.703 0.108,1.24 0.325,1.61c0.217,0.371 0.503,0.624 0.859,0.759c0.356,0.134 0.751,0.202 1.184,0.202c0.328,-0 0.629,-0.024 0.903,-0.072c0.274,-0.049 0.484,-0.092 0.628,-0.13l0.881,4.086c-0.279,0.097 -0.676,0.202 -1.191,0.318c-0.515,0.116 -1.144,0.183 -1.885,0.202c-1.309,0.039 -2.489,-0.161 -3.538,-0.599c-1.049,-0.438 -1.88,-1.119 -2.491,-2.043c-0.611,-0.925 -0.912,-2.08 -0.902,-3.466l-0,-21.69Z" style="fill:#fff;fill-rule:nonzero;"/><path d="M176.749,48.719l-0,-12.852l5.227,0l0,22.181l-5.069,-0l0,-3.942l-0.231,-0c-0.5,1.242 -1.321,2.257 -2.462,3.047c-1.141,0.789 -2.544,1.184 -4.209,1.184c-1.454,-0 -2.737,-0.325 -3.849,-0.975c-1.112,-0.65 -1.98,-1.598 -2.606,-2.845c-0.626,-1.247 -0.939,-2.756 -0.939,-4.527l0,-14.123l5.228,0l-0,13.314c-0,1.406 0.385,2.523 1.155,3.351c0.77,0.828 1.781,1.241 3.032,1.241c0.771,0 1.517,-0.187 2.239,-0.563c0.722,-0.375 1.316,-0.936 1.783,-1.682c0.467,-0.746 0.701,-1.682 0.701,-2.809Z" style="fill:#fff;fill-rule:nonzero;"/><path d="M187.348,35.867l5.228,0l-0,23.452c-0,1.598 -0.304,2.917 -0.91,3.956c-0.607,1.04 -1.483,1.815 -2.628,2.325c-1.146,0.511 -2.537,0.766 -4.174,0.766c-0.192,-0 -0.37,-0.003 -0.534,-0.007c-0.164,-0.005 -0.342,-0.012 -0.534,-0.022l-0,-4.26c0.144,0.01 0.274,0.017 0.39,0.022c0.115,0.004 0.235,0.007 0.361,0.007c1.001,-0 1.718,-0.243 2.151,-0.729c0.433,-0.487 0.65,-1.197 0.65,-2.13l0,-23.38Zm2.599,-3.148c-0.837,-0 -1.552,-0.277 -2.144,-0.83c-0.592,-0.554 -0.888,-1.221 -0.888,-2c-0,-0.79 0.296,-1.461 0.888,-2.015c0.592,-0.553 1.307,-0.83 2.144,-0.83c0.828,-0 1.538,0.277 2.13,0.83c0.592,0.554 0.888,1.225 0.888,2.015c0,0.779 -0.296,1.446 -0.888,2c-0.592,0.553 -1.302,0.83 -2.13,0.83Z" style="fill:#fff;fill-rule:nonzero;"/><path d="M197.948,58.048l-0,-22.181l5.227,0l0,22.181l-5.227,-0Zm2.628,-25.329c-0.828,-0 -1.541,-0.277 -2.138,-0.83c-0.596,-0.554 -0.895,-1.221 -0.895,-2c0,-0.79 0.299,-1.461 0.895,-2.015c0.597,-0.553 1.31,-0.83 2.138,-0.83c0.837,-0 1.552,0.277 2.144,0.83c0.592,0.554 0.888,1.225 0.888,2.015c0,0.779 -0.296,1.446 -0.888,2c-0.592,0.553 -1.307,0.83 -2.144,0.83Z" style="fill:#fff;fill-rule:nonzero;"/><rect x="208.547" y="28.473" width="5.228" height="29.575" style="fill:#fff;fill-rule:nonzero;"/><path d="M222.367,58.366c-0.876,-0 -1.627,-0.308 -2.253,-0.925c-0.626,-0.616 -0.934,-1.367 -0.924,-2.252c-0.01,-0.867 0.298,-1.608 0.924,-2.224c0.626,-0.616 1.377,-0.924 2.253,-0.924c0.847,-0 1.586,0.308 2.216,0.924c0.631,0.616 0.951,1.357 0.961,2.224c-0.01,0.587 -0.162,1.121 -0.455,1.603c-0.294,0.481 -0.679,0.864 -1.155,1.148c-0.477,0.284 -0.999,0.426 -1.567,0.426Z" style="fill:#fff;fill-rule:nonzero;"/><path d="M240.634,58.481c-2.166,0 -4.043,-0.476 -5.632,-1.429c-1.588,-0.954 -2.818,-2.287 -3.689,-4.001c-0.872,-1.713 -1.307,-3.716 -1.307,-6.007c-0,-2.291 0.435,-4.298 1.307,-6.022c0.871,-1.723 2.101,-3.061 3.689,-4.014c1.589,-0.953 3.466,-1.43 5.632,-1.43c2.166,0 4.044,0.477 5.632,1.43c1.589,0.953 2.818,2.291 3.69,4.014c0.871,1.724 1.307,3.731 1.307,6.022c-0,2.291 -0.436,4.294 -1.307,6.007c-0.872,1.714 -2.101,3.047 -3.69,4.001c-1.588,0.953 -3.466,1.429 -5.632,1.429Zm0.029,-4.188c1.175,0 2.157,-0.325 2.946,-0.974c0.789,-0.65 1.379,-1.524 1.769,-2.621c0.39,-1.098 0.585,-2.321 0.585,-3.668c-0,-1.358 -0.195,-2.588 -0.585,-3.69c-0.39,-1.102 -0.98,-1.981 -1.769,-2.635c-0.789,-0.655 -1.771,-0.982 -2.946,-0.982c-1.203,-0 -2.202,0.327 -2.996,0.982c-0.795,0.654 -1.387,1.533 -1.777,2.635c-0.389,1.102 -0.584,2.332 -0.584,3.69c-0,1.347 0.195,2.57 0.584,3.668c0.39,1.097 0.982,1.971 1.777,2.621c0.794,0.649 1.793,0.974 2.996,0.974Z" style="fill:#fff;fill-rule:nonzero;"/><path d="M255.681,58.048l0,-22.181l5.069,0l0,3.697l0.231,-0c0.404,-1.281 1.1,-2.27 2.087,-2.968c0.987,-0.698 2.115,-1.047 3.386,-1.047c0.289,0 0.614,0.012 0.975,0.036c0.361,0.025 0.662,0.061 0.902,0.109l0,4.808c-0.221,-0.077 -0.57,-0.146 -1.047,-0.209c-0.476,-0.062 -0.936,-0.094 -1.379,-0.094c-0.953,0 -1.807,0.205 -2.563,0.614c-0.756,0.409 -1.35,0.975 -1.783,1.697c-0.433,0.722 -0.65,1.555 -0.65,2.498l-0,13.04l-5.228,-0Z" style="fill:#fff;fill-rule:nonzero;"/><path d="M280.534,66.828c-1.877,-0 -3.49,-0.253 -4.838,-0.758c-1.348,-0.506 -2.431,-1.182 -3.249,-2.029c-0.818,-0.847 -1.386,-1.786 -1.704,-2.816l4.708,-1.141c0.211,0.433 0.52,0.864 0.924,1.293c0.404,0.428 0.951,0.784 1.639,1.068c0.688,0.284 1.557,0.426 2.606,0.426c1.483,0 2.711,-0.358 3.683,-1.076c0.972,-0.717 1.458,-1.894 1.458,-3.53l0,-4.203l-0.26,0c-0.269,0.539 -0.661,1.093 -1.176,1.661c-0.516,0.568 -1.194,1.045 -2.037,1.43c-0.842,0.385 -1.899,0.577 -3.169,0.577c-1.704,0 -3.247,-0.402 -4.629,-1.206c-1.381,-0.803 -2.479,-2.007 -3.292,-3.61c-0.814,-1.603 -1.22,-3.612 -1.22,-6.029c-0,-2.435 0.406,-4.493 1.22,-6.173c0.813,-1.68 1.913,-2.956 3.3,-3.827c1.386,-0.871 2.931,-1.307 4.635,-1.307c1.3,0 2.371,0.219 3.213,0.657c0.843,0.438 1.514,0.963 2.015,1.574c0.5,0.612 0.88,1.187 1.14,1.726l0.289,-0l0,-3.668l5.156,0l-0,22.542c-0,1.896 -0.453,3.466 -1.358,4.708c-0.905,1.242 -2.142,2.171 -3.711,2.787c-1.569,0.616 -3.35,0.924 -5.343,0.924Zm0.043,-13.199c1.107,0 2.051,-0.269 2.831,-0.809c0.779,-0.539 1.371,-1.314 1.776,-2.325c0.404,-1.01 0.606,-2.223 0.606,-3.639c0,-1.396 -0.2,-2.618 -0.599,-3.668c-0.4,-1.049 -0.987,-1.865 -1.762,-2.447c-0.775,-0.583 -1.725,-0.874 -2.852,-0.874c-1.165,0 -2.137,0.303 -2.917,0.91c-0.78,0.606 -1.367,1.437 -1.762,2.491c-0.394,1.054 -0.592,2.25 -0.592,3.588c0,1.358 0.2,2.544 0.6,3.56c0.399,1.016 0.991,1.805 1.776,2.368c0.784,0.563 1.75,0.845 2.895,0.845Z" style="fill:#fff;fill-rule:nonzero;"/></svg>